<mxfile host="65bd71144e">
    <diagram id="A4oLy7jvje0LCx9hwnTJ" name="Page-1">
        <mxGraphModel dx="844" dy="476" grid="1" gridSize="10" guides="1" tooltips="1" connect="1" arrows="1" fold="1" page="1" pageScale="1" pageWidth="827" pageHeight="1169" math="0" shadow="0">
            <root>
                <mxCell id="0"/>
                <mxCell id="1" parent="0"/>
                <mxCell id="3" style="edgeStyle=none;html=1;" parent="1" edge="1">
                    <mxGeometry relative="1" as="geometry">
                        <mxPoint x="270" y="190" as="targetPoint"/>
                        <mxPoint x="270" y="65" as="sourcePoint"/>
                    </mxGeometry>
                </mxCell>
                <mxCell id="5" style="edgeStyle=none;html=1;" parent="1" edge="1">
                    <mxGeometry relative="1" as="geometry">
                        <mxPoint x="600" y="50" as="targetPoint"/>
                        <mxPoint x="295" y="50" as="sourcePoint"/>
                    </mxGeometry>
                </mxCell>
                <mxCell id="7" style="edgeStyle=none;html=1;" parent="1" source="4" edge="1">
                    <mxGeometry relative="1" as="geometry">
                        <mxPoint x="70" y="320" as="targetPoint"/>
                        <Array as="points">
                            <mxPoint x="70" y="200"/>
                        </Array>
                    </mxGeometry>
                </mxCell>
                <mxCell id="12" style="edgeStyle=none;html=1;fontSize=12;" parent="1" source="4" edge="1">
                    <mxGeometry relative="1" as="geometry">
                        <mxPoint x="340" y="320" as="targetPoint"/>
                        <Array as="points">
                            <mxPoint x="340" y="220"/>
                        </Array>
                    </mxGeometry>
                </mxCell>
                <mxCell id="14" style="edgeStyle=none;html=1;fontSize=12;" parent="1" source="4" edge="1">
                    <mxGeometry relative="1" as="geometry">
                        <mxPoint x="200" y="320" as="targetPoint"/>
                        <Array as="points">
                            <mxPoint x="200" y="220"/>
                        </Array>
                    </mxGeometry>
                </mxCell>
                <mxCell id="15" style="edgeStyle=none;html=1;fontSize=12;" parent="1" source="4" target="16" edge="1">
                    <mxGeometry relative="1" as="geometry">
                        <mxPoint x="470" y="320" as="targetPoint"/>
                        <Array as="points">
                            <mxPoint x="485" y="200"/>
                        </Array>
                    </mxGeometry>
                </mxCell>
                <mxCell id="31" style="edgeStyle=none;html=1;fontSize=12;" parent="1" source="4" edge="1">
                    <mxGeometry relative="1" as="geometry">
                        <mxPoint x="270" y="500" as="targetPoint"/>
                    </mxGeometry>
                </mxCell>
                <mxCell id="4" value="Login" style="text;html=1;align=center;verticalAlign=middle;resizable=0;points=[];autosize=1;strokeColor=#2D7600;fillColor=#60a917;fontColor=#ffffff;" parent="1" vertex="1">
                    <mxGeometry x="245" y="185" width="50" height="30" as="geometry"/>
                </mxCell>
                <mxCell id="17" style="edgeStyle=none;html=1;fontSize=12;" parent="1" source="6" edge="1">
                    <mxGeometry relative="1" as="geometry">
                        <mxPoint x="530" y="120" as="targetPoint"/>
                    </mxGeometry>
                </mxCell>
                <mxCell id="19" style="edgeStyle=none;html=1;fontSize=12;" parent="1" source="6" edge="1">
                    <mxGeometry relative="1" as="geometry">
                        <mxPoint x="635" y="120" as="targetPoint"/>
                    </mxGeometry>
                </mxCell>
                <mxCell id="21" style="edgeStyle=none;html=1;fontSize=12;" parent="1" source="6" edge="1">
                    <mxGeometry relative="1" as="geometry">
                        <mxPoint x="730" y="120" as="targetPoint"/>
                    </mxGeometry>
                </mxCell>
                <mxCell id="6" value="Not login" style="text;html=1;align=center;verticalAlign=middle;resizable=0;points=[];autosize=1;strokeColor=#2D7600;fillColor=#60a917;fontColor=#ffffff;" parent="1" vertex="1">
                    <mxGeometry x="600" y="35" width="70" height="30" as="geometry"/>
                </mxCell>
                <mxCell id="8" value="&lt;font style=&quot;font-size: 18px;&quot;&gt;user&lt;/font&gt;" style="whiteSpace=wrap;html=1;fillColor=#1ba1e2;fontColor=#ffffff;strokeColor=#006EAF;" parent="1" vertex="1">
                    <mxGeometry x="220" y="20" width="120" height="60" as="geometry"/>
                </mxCell>
                <mxCell id="9" value="&lt;font style=&quot;font-size: 12px;&quot;&gt;Upload Racipe&lt;/font&gt;" style="text;html=1;align=center;verticalAlign=middle;resizable=0;points=[];autosize=1;strokeColor=#2D7600;fillColor=#60a917;fontSize=18;fontColor=#ffffff;" parent="1" vertex="1">
                    <mxGeometry x="10" y="320" width="100" height="40" as="geometry"/>
                </mxCell>
                <mxCell id="11" value="add to wishlist" style="text;html=1;align=center;verticalAlign=middle;resizable=0;points=[];autosize=1;strokeColor=#2D7600;fillColor=#60a917;fontSize=12;fontColor=#ffffff;" parent="1" vertex="1">
                    <mxGeometry x="145" y="325" width="100" height="30" as="geometry"/>
                </mxCell>
                <mxCell id="28" style="edgeStyle=none;html=1;fontSize=12;" parent="1" source="13" target="29" edge="1">
                    <mxGeometry relative="1" as="geometry">
                        <mxPoint x="320" y="430" as="targetPoint"/>
                    </mxGeometry>
                </mxCell>
                <mxCell id="13" value="see user wishlist" style="text;html=1;align=center;verticalAlign=middle;resizable=0;points=[];autosize=1;strokeColor=none;fillColor=none;fontSize=12;" parent="1" vertex="1">
                    <mxGeometry x="285" y="325" width="110" height="30" as="geometry"/>
                </mxCell>
                <mxCell id="23" style="edgeStyle=none;html=1;fontSize=12;" parent="1" source="16" target="25" edge="1">
                    <mxGeometry relative="1" as="geometry">
                        <mxPoint x="440" y="440" as="targetPoint"/>
                    </mxGeometry>
                </mxCell>
                <mxCell id="26" style="edgeStyle=none;html=1;fontSize=12;" parent="1" source="16" target="27" edge="1">
                    <mxGeometry relative="1" as="geometry">
                        <mxPoint x="560" y="440" as="targetPoint"/>
                        <Array as="points">
                            <mxPoint x="620" y="340"/>
                        </Array>
                    </mxGeometry>
                </mxCell>
                <mxCell id="16" value="see the uploaded racips" style="text;html=1;align=center;verticalAlign=middle;resizable=0;points=[];autosize=1;strokeColor=none;fillColor=none;fontSize=12;" parent="1" vertex="1">
                    <mxGeometry x="410" y="325" width="150" height="30" as="geometry"/>
                </mxCell>
                <mxCell id="18" value="See all uploaded racipes" style="text;html=1;align=center;verticalAlign=middle;resizable=0;points=[];autosize=1;strokeColor=none;fillColor=none;fontSize=12;" parent="1" vertex="1">
                    <mxGeometry x="455" y="120" width="150" height="30" as="geometry"/>
                </mxCell>
                <mxCell id="20" value="login&amp;nbsp;" style="text;html=1;align=center;verticalAlign=middle;resizable=0;points=[];autosize=1;strokeColor=#2D7600;fillColor=#60a917;fontSize=12;fontColor=#ffffff;" parent="1" vertex="1">
                    <mxGeometry x="605" y="125" width="50" height="30" as="geometry"/>
                </mxCell>
                <mxCell id="22" value="create an account" style="text;html=1;align=center;verticalAlign=middle;resizable=0;points=[];autosize=1;strokeColor=#2D7600;fillColor=#60a917;fontSize=12;fontColor=#ffffff;" parent="1" vertex="1">
                    <mxGeometry x="670" y="125" width="120" height="30" as="geometry"/>
                </mxCell>
                <mxCell id="25" value="delete the racipe" style="text;html=1;align=center;verticalAlign=middle;resizable=0;points=[];autosize=1;strokeColor=none;fillColor=none;fontSize=12;" parent="1" vertex="1">
                    <mxGeometry x="430" y="435" width="110" height="30" as="geometry"/>
                </mxCell>
                <mxCell id="27" value="edit the racipe" style="text;html=1;align=center;verticalAlign=middle;resizable=0;points=[];autosize=1;strokeColor=none;fillColor=none;fontSize=12;" parent="1" vertex="1">
                    <mxGeometry x="570" y="435" width="100" height="30" as="geometry"/>
                </mxCell>
                <mxCell id="29" value="remve from wishlist" style="text;html=1;align=center;verticalAlign=middle;resizable=0;points=[];autosize=1;strokeColor=none;fillColor=none;fontSize=12;" parent="1" vertex="1">
                    <mxGeometry x="275" y="435" width="130" height="30" as="geometry"/>
                </mxCell>
                <mxCell id="33" value="" style="endArrow=classic;startArrow=classic;html=1;fontSize=12;" parent="1" edge="1">
                    <mxGeometry width="50" height="50" relative="1" as="geometry">
                        <mxPoint x="180" y="570" as="sourcePoint"/>
                        <mxPoint x="360" y="570" as="targetPoint"/>
                        <Array as="points">
                            <mxPoint x="270" y="500"/>
                        </Array>
                    </mxGeometry>
                </mxCell>
                <mxCell id="34" value="edit account details" style="text;html=1;align=center;verticalAlign=middle;resizable=0;points=[];autosize=1;strokeColor=#2D7600;fillColor=#60a917;fontSize=12;fontColor=#ffffff;" parent="1" vertex="1">
                    <mxGeometry x="105" y="575" width="130" height="30" as="geometry"/>
                </mxCell>
                <mxCell id="35" value="delete account" style="text;html=1;align=center;verticalAlign=middle;resizable=0;points=[];autosize=1;strokeColor=none;fillColor=none;fontSize=12;" parent="1" vertex="1">
                    <mxGeometry x="314" y="575" width="100" height="30" as="geometry"/>
                </mxCell>
                <mxCell id="37" style="edgeStyle=none;html=1;" parent="1" source="36" edge="1">
                    <mxGeometry relative="1" as="geometry">
                        <mxPoint x="730" y="240" as="targetPoint"/>
                    </mxGeometry>
                </mxCell>
                <mxCell id="36" value="green" style="text;html=1;align=center;verticalAlign=middle;resizable=0;points=[];autosize=1;strokeColor=#2D7600;fillColor=#60a917;fontColor=#ffffff;" parent="1" vertex="1">
                    <mxGeometry x="635" y="225" width="50" height="30" as="geometry"/>
                </mxCell>
                <mxCell id="38" value="complete" style="text;html=1;align=center;verticalAlign=middle;resizable=0;points=[];autosize=1;strokeColor=none;fillColor=none;" parent="1" vertex="1">
                    <mxGeometry x="730" y="225" width="70" height="30" as="geometry"/>
                </mxCell>
                <mxCell id="39" value="logout" style="text;html=1;align=center;verticalAlign=middle;resizable=0;points=[];autosize=1;strokeColor=#2D7600;fillColor=#60a917;fontColor=#ffffff;" parent="1" vertex="1">
                    <mxGeometry x="240" y="575" width="60" height="30" as="geometry"/>
                </mxCell>
                <mxCell id="40" value="" style="endArrow=classic;html=1;" parent="1" target="39" edge="1">
                    <mxGeometry width="50" height="50" relative="1" as="geometry">
                        <mxPoint x="270" y="500" as="sourcePoint"/>
                        <mxPoint x="310" y="640" as="targetPoint"/>
                    </mxGeometry>
                </mxCell>
                <mxCell id="41" value="incomplete" style="text;html=1;align=center;verticalAlign=middle;resizable=0;points=[];autosize=1;strokeColor=none;fillColor=none;" parent="1" vertex="1">
                    <mxGeometry x="730" y="265" width="80" height="30" as="geometry"/>
                </mxCell>
                <mxCell id="42" value="error" style="text;html=1;align=center;verticalAlign=middle;resizable=0;points=[];autosize=1;strokeColor=none;fillColor=none;" parent="1" vertex="1">
                    <mxGeometry x="745" y="305" width="50" height="30" as="geometry"/>
                </mxCell>
                <mxCell id="44" style="edgeStyle=none;html=1;" parent="1" source="43" target="41" edge="1">
                    <mxGeometry relative="1" as="geometry"/>
                </mxCell>
                <mxCell id="43" value="yellow" style="text;html=1;align=center;verticalAlign=middle;resizable=0;points=[];autosize=1;strokeColor=#B09500;fillColor=#e3c800;fontColor=#000000;" parent="1" vertex="1">
                    <mxGeometry x="635" y="265" width="60" height="30" as="geometry"/>
                </mxCell>
                <mxCell id="46" style="edgeStyle=none;html=1;" parent="1" source="45" target="42" edge="1">
                    <mxGeometry relative="1" as="geometry"/>
                </mxCell>
                <mxCell id="45" value="red" style="text;html=1;align=center;verticalAlign=middle;resizable=0;points=[];autosize=1;strokeColor=#B20000;fillColor=#e51400;fontColor=#ffffff;" parent="1" vertex="1">
                    <mxGeometry x="650" y="305" width="40" height="30" as="geometry"/>
                </mxCell>
            </root>
        </mxGraphModel>
    </diagram>
</mxfile>